<svg version="1.1" id="Layer_1" xmlns="http://www.w3.org/2000/svg" xmlns:xlink="http://www.w3.org/1999/xlink" x="0px" y="0px"
	 width="100%" viewBox="0 0 1080 1080" enable-background="new 0 0 1080 1080" xml:space="preserve">
<path fill="#111111" opacity="0.000000" stroke="none" 
	d="
M473.000000,1081.000000 
	C315.351471,1081.000000 158.202942,1081.000000 1.027204,1081.000000 
	C1.027204,721.059692 1.027204,361.119354 1.027204,1.089517 
	C360.898743,1.089517 720.797546,1.089517 1080.848145,1.089517 
	C1080.848145,360.999939 1080.848145,720.999939 1080.848145,1081.000000 
	C878.452209,1081.000000 675.976135,1081.000000 473.000000,1081.000000 
M547.375977,596.943787 
	C552.002319,586.970154 556.944946,577.128540 561.176819,566.990234 
	C566.733398,553.678223 568.851013,539.782898 566.366394,525.385559 
	C565.462463,520.147705 564.516846,514.913391 563.780945,509.650848 
	C559.052246,475.833740 541.847717,449.254089 514.494507,429.927612 
	C503.946442,422.474792 499.340759,414.818176 501.566650,402.643219 
	C502.892212,395.392944 500.156769,391.186279 492.968628,389.170441 
	C488.060089,387.793884 483.086365,383.322876 478.791077,384.053375 
	C474.764008,384.738220 471.445068,390.309204 468.079803,393.973694 
	C464.219391,398.177368 461.002594,400.282227 453.998932,399.531830 
	C434.857361,397.480927 415.407928,396.615082 396.177582,397.468567 
	C365.771423,398.818115 337.155518,407.068390 311.600403,424.514130 
	C298.871979,433.203461 289.109741,444.703278 279.337097,456.299347 
	C268.448242,469.219879 257.154358,481.281891 243.118805,491.447632 
	C207.092178,517.541077 181.800186,553.471008 158.037079,590.201416 
	C159.752975,593.118896 161.269394,595.696472 162.785156,598.274475 
	C178.891998,625.669006 196.981033,651.588135 220.017868,673.692261 
	C233.588226,686.713196 248.435852,697.852783 266.892914,703.306702 
	C268.460754,703.769958 270.072083,706.105469 270.558136,707.874756 
	C273.250061,717.673523 275.457001,727.605530 278.143707,737.405823 
	C279.086823,740.846191 278.103271,742.281311 275.066071,743.966919 
	C265.324951,749.373169 255.542694,754.803650 246.340149,761.054810 
	C236.779144,767.549561 228.647141,775.747131 222.920883,785.994019 
	C218.420319,794.047546 215.694016,802.657104 217.551010,811.896484 
	C221.670639,832.393433 233.339813,846.858398 253.108856,854.252136 
	C278.212067,863.640869 303.211945,862.559875 328.417938,853.982971 
	C368.409576,840.374817 406.735229,822.971558 444.706696,804.632202 
	C463.034149,795.780457 482.575867,792.274231 502.962280,793.417847 
	C520.646667,794.409851 537.266602,799.725037 553.900513,805.202942 
	C557.033813,806.234802 560.588806,805.986145 563.949158,806.328369 
	C564.105286,802.786804 565.254517,798.935242 564.261169,795.752380 
	C555.876709,768.886536 545.726685,743.097839 524.231445,723.219238 
	C503.427185,703.979553 500.523468,685.746887 512.537964,660.145874 
	C513.527893,658.036438 514.613464,655.967407 515.744629,653.929565 
	C526.167419,635.151978 536.610046,616.385376 547.375977,596.943787 
M922.089966,524.519226 
	C922.505249,519.386047 923.382507,514.239990 923.240112,509.122284 
	C922.940979,498.364288 918.282471,488.954010 913.711182,479.407959 
	C902.211731,455.394257 874.497742,440.122833 847.059570,444.973541 
	C838.254944,446.530090 831.015808,451.181000 827.144287,459.363617 
	C820.417969,473.580475 818.253113,488.920410 817.789673,504.496582 
	C817.707825,507.246796 818.727051,510.029755 819.196472,512.573730 
	C826.856995,507.157074 833.413635,501.651123 840.787048,497.650787 
	C844.867126,495.437225 850.366760,494.857635 855.132812,495.137634 
	C861.218445,495.495087 866.761841,502.447723 865.208496,507.094482 
	C862.847778,514.156555 860.450317,521.399170 856.702759,527.760559 
	C850.818115,537.749817 841.342834,543.123718 829.720154,540.918152 
	C820.712219,539.208801 811.347656,536.587646 803.541626,531.993164 
	C791.998840,525.199280 781.729004,516.252869 770.846375,508.320129 
	C767.938416,506.200439 767.198792,503.724335 767.598633,500.158661 
	C771.145508,468.528687 770.811157,436.840363 766.190735,405.419586 
	C763.486450,387.029266 759.391968,368.683868 754.059937,350.876038 
	C745.622437,322.696503 731.334900,297.607880 709.432739,277.369781 
	C707.116211,275.229218 704.969482,272.905029 702.655762,270.761230 
	C695.734741,264.348328 689.568604,256.682129 681.676636,251.835632 
	C654.990234,235.447479 626.072571,224.382370 594.683411,221.491928 
	C554.954285,217.833527 523.726379,232.368546 503.073273,268.314087 
	C485.411407,299.053528 479.686188,332.903534 478.176910,367.728577 
	C477.722137,378.221741 477.916656,378.230347 487.786713,382.407227 
	C490.701874,383.640869 493.520477,385.282104 496.557495,386.002686 
	C500.326385,386.896942 504.447540,387.945496 508.105286,387.261871 
	C512.866638,386.372009 516.249939,387.437439 519.971130,390.245453 
	C534.652344,401.324097 550.132324,411.196655 567.538452,417.429016 
	C582.815979,422.899231 598.327759,426.695496 613.893311,417.803558 
	C614.607666,417.395508 617.108643,418.543335 617.554199,419.522888 
	C619.060181,422.834045 620.579102,426.315765 621.085266,429.875580 
	C623.710632,448.339478 626.334839,466.814026 628.344666,485.351532 
	C629.888489,499.591644 629.951050,514.000916 631.705017,528.207458 
	C633.828125,545.404358 636.140503,562.936096 649.186218,576.089294 
	C655.717407,582.674316 662.820557,588.879822 670.424377,594.164185 
	C679.271790,600.312866 688.251648,606.132385 696.710876,612.935486 
	C719.035400,630.889465 744.482178,640.560364 773.630981,637.920166 
	C793.228210,636.145081 810.569397,628.380859 826.469421,617.087585 
	C829.860657,614.678894 833.051575,611.867493 836.716675,609.985352 
	C855.490173,600.344421 873.093018,588.970764 888.776794,574.832214 
	C903.943481,561.159912 916.898071,545.877441 922.089966,524.519226 
z"/>
<path fill="#D0363A" opacity="1.000000" stroke="none" 
	d="
M547.211487,597.279724 
	C536.610046,616.385376 526.167419,635.151978 515.744629,653.929565 
	C514.613464,655.967407 513.527893,658.036438 512.537964,660.145874 
	C500.523468,685.746887 503.427185,703.979553 524.231445,723.219238 
	C545.726685,743.097839 555.876709,768.886536 564.261169,795.752380 
	C565.254517,798.935242 564.105286,802.786804 563.949158,806.328369 
	C560.588806,805.986145 557.033813,806.234802 553.900513,805.202942 
	C537.266602,799.725037 520.646667,794.409851 502.962280,793.417847 
	C482.575867,792.274231 463.034149,795.780457 444.706696,804.632202 
	C406.735229,822.971558 368.409576,840.374817 328.417938,853.982971 
	C303.211945,862.559875 278.212067,863.640869 253.108856,854.252136 
	C233.339813,846.858398 221.670639,832.393433 217.551010,811.896484 
	C215.694016,802.657104 218.420319,794.047546 222.920883,785.994019 
	C228.647141,775.747131 236.779144,767.549561 246.340149,761.054810 
	C255.542694,754.803650 265.324951,749.373169 275.066071,743.966919 
	C278.103271,742.281311 279.086823,740.846191 278.143707,737.405823 
	C275.457001,727.605530 273.250061,717.673523 270.558136,707.874756 
	C270.072083,706.105469 268.460754,703.769958 266.892914,703.306702 
	C248.435852,697.852783 233.588226,686.713196 220.017868,673.692261 
	C196.981033,651.588135 178.891998,625.669006 162.785156,598.274475 
	C161.269394,595.696472 159.752975,593.118896 158.037079,590.201416 
	C181.800186,553.471008 207.092178,517.541077 243.118805,491.447632 
	C257.154358,481.281891 268.448242,469.219879 279.337097,456.299347 
	C289.109741,444.703278 298.871979,433.203461 311.600403,424.514130 
	C337.155518,407.068390 365.771423,398.818115 396.177582,397.468567 
	C415.407928,396.615082 434.857361,397.480927 453.998932,399.531830 
	C461.002594,400.282227 464.219391,398.177368 468.079803,393.973694 
	C471.445068,390.309204 474.764008,384.738220 478.791077,384.053375 
	C483.086365,383.322876 488.060089,387.793884 492.968628,389.170441 
	C500.156769,391.186279 502.892212,395.392944 501.566650,402.643219 
	C499.340759,414.818176 503.946442,422.474792 514.494507,429.927612 
	C541.847717,449.254089 559.052246,475.833740 563.780945,509.650848 
	C564.516846,514.913391 565.462463,520.147705 566.366394,525.385559 
	C568.851013,539.782898 566.733398,553.678223 561.176819,566.990234 
	C556.944946,577.128540 552.002319,586.970154 547.211487,597.279724 
M464.404633,538.077820 
	C455.030243,532.006226 444.818176,529.256714 433.609955,529.791321 
	C413.001251,530.774109 394.364502,545.510864 388.531982,565.700256 
	C382.582336,586.295105 390.720551,608.712952 408.651123,621.121399 
	C425.414795,632.722229 449.585663,632.248840 465.865723,620.093689 
	C494.911255,598.407471 492.108276,557.285339 464.404633,538.077820 
M264.762573,541.304077 
	C269.290466,535.841003 273.818359,530.377991 278.727661,524.454773 
	C273.255249,519.323914 267.847443,514.253540 261.648468,508.441467 
	C245.010178,527.292786 228.805161,545.653259 212.293060,564.361572 
	C219.677856,569.953979 226.385162,575.033264 234.092102,580.869568 
	C244.399918,567.567383 254.358963,554.715210 264.762573,541.304077 
M243.727493,619.747681 
	C236.494415,610.852234 229.261353,601.956787 221.657791,592.605652 
	C215.914749,597.178894 210.554581,601.447205 204.936890,605.920593 
	C207.655716,608.971924 209.853790,611.454834 212.069077,613.922302 
	C226.760941,630.286804 241.419708,646.681580 256.219940,662.947510 
	C257.414429,664.260315 260.330780,665.856628 261.180603,665.319092 
	C265.322113,662.699524 269.032898,659.398926 273.217896,656.084412 
	C263.249634,643.801208 253.712265,632.048950 243.727493,619.747681 
M292.593048,563.136230 
	C297.182831,556.639160 301.772614,550.142090 306.864044,542.934875 
	C302.427795,540.344482 298.420654,538.096863 294.510712,535.691162 
	C291.595184,533.897400 289.881348,534.760803 288.050720,537.495667 
	C280.363129,548.980286 272.456116,560.317871 264.661011,571.730835 
	C263.947205,572.775940 263.458130,573.974487 262.711609,575.392578 
	C267.590118,578.711426 272.179382,581.833496 277.022797,585.128479 
	C282.379974,577.561829 287.278870,570.642456 292.593048,563.136230 
M287.839996,604.493958 
	C286.212830,602.687256 284.195343,599.116882 283.025299,599.375854 
	C277.633728,600.569092 272.478363,602.829651 266.742218,604.885315 
	C273.513336,618.750488 279.895996,631.820251 286.522675,645.389648 
	C292.677643,642.629333 298.313141,640.101929 304.421234,637.362610 
	C298.772003,626.165588 293.473053,615.662842 287.839996,604.493958 
M338.268097,574.946045 
	C338.398254,574.465149 338.528351,573.984192 338.658600,573.503296 
	C342.544830,559.161011 342.527954,559.235779 328.102356,555.980835 
	C325.283508,555.344788 323.864502,556.127197 322.571686,558.557922 
	C319.063049,565.154846 315.326447,571.630310 311.721100,578.176392 
	C310.812988,579.825317 310.058319,581.558716 308.903473,583.930298 
	C315.670593,583.930298 321.467529,584.000122 327.262177,583.914795 
	C337.337769,583.766418 335.222961,585.443848 338.268097,574.946045 
M338.820404,605.523682 
	C337.636230,602.473999 336.452057,599.424255 335.146423,596.061768 
	C331.722198,597.228943 328.748810,598.191284 325.811127,599.252502 
	C312.431519,604.085938 312.435089,604.095947 317.393494,617.341797 
	C321.092407,627.222961 322.165161,627.654419 331.863129,623.160217 
	C343.342163,617.840576 343.342133,617.840515 338.820404,605.523682 
M361.186157,564.484375 
	C359.713013,568.646484 358.239868,572.808594 356.649078,577.303040 
	C359.802124,578.224060 362.148773,579.018738 364.548218,579.592651 
	C380.452820,583.396423 376.294525,586.201172 381.310150,569.531555 
	C382.209534,566.542419 381.205902,565.222534 378.396118,564.531799 
	C374.196167,563.499329 370.080597,562.029602 365.832642,561.343506 
	C364.537415,561.134338 362.924591,562.891418 361.186157,564.484375 
M381.761749,601.315674 
	C381.136414,599.597351 380.762848,597.716858 379.797150,596.217834 
	C379.154785,595.220764 377.456726,593.971069 376.590729,594.199158 
	C370.051270,595.921692 363.600952,597.982422 357.125000,599.936890 
	C361.106262,612.507751 361.706726,612.824219 372.883972,608.679932 
	C375.220581,607.813477 377.727783,607.213989 379.808319,605.928345 
	C380.920990,605.240723 381.291260,603.351868 381.761749,601.315674 
z"/>
<path fill="#D0363A" opacity="1.000000" stroke="none" 
	d="
M921.995422,524.930237 
	C916.898071,545.877441 903.943481,561.159912 888.776794,574.832214 
	C873.093018,588.970764 855.490173,600.344421 836.716675,609.985352 
	C833.051575,611.867493 829.860657,614.678894 826.469421,617.087585 
	C810.569397,628.380859 793.228210,636.145081 773.630981,637.920166 
	C744.482178,640.560364 719.035400,630.889465 696.710876,612.935486 
	C688.251648,606.132385 679.271790,600.312866 670.424377,594.164185 
	C662.820557,588.879822 655.717407,582.674316 649.186218,576.089294 
	C636.140503,562.936096 633.828125,545.404358 631.705017,528.207458 
	C629.951050,514.000916 629.888489,499.591644 628.344666,485.351532 
	C626.334839,466.814026 623.710632,448.339478 621.085266,429.875580 
	C620.579102,426.315765 619.060181,422.834045 617.554199,419.522888 
	C617.108643,418.543335 614.607666,417.395508 613.893311,417.803558 
	C598.327759,426.695496 582.815979,422.899231 567.538452,417.429016 
	C550.132324,411.196655 534.652344,401.324097 519.971130,390.245453 
	C516.249939,387.437439 512.866638,386.372009 508.105286,387.261871 
	C504.447540,387.945496 500.326385,386.896942 496.557495,386.002686 
	C493.520477,385.282104 490.701874,383.640869 487.786713,382.407227 
	C477.916656,378.230347 477.722137,378.221741 478.176910,367.728577 
	C479.686188,332.903534 485.411407,299.053528 503.073273,268.314087 
	C523.726379,232.368546 554.954285,217.833527 594.683411,221.491928 
	C626.072571,224.382370 654.990234,235.447479 681.676636,251.835632 
	C689.568604,256.682129 695.734741,264.348328 702.655762,270.761230 
	C704.969482,272.905029 707.116211,275.229218 709.432739,277.369781 
	C731.334900,297.607880 745.622437,322.696503 754.059937,350.876038 
	C759.391968,368.683868 763.486450,387.029266 766.190735,405.419586 
	C770.811157,436.840363 771.145508,468.528687 767.598633,500.158661 
	C767.198792,503.724335 767.938416,506.200439 770.846375,508.320129 
	C781.729004,516.252869 791.998840,525.199280 803.541626,531.993164 
	C811.347656,536.587646 820.712219,539.208801 829.720154,540.918152 
	C841.342834,543.123718 850.818115,537.749817 856.702759,527.760559 
	C860.450317,521.399170 862.847778,514.156555 865.208496,507.094482 
	C866.761841,502.447723 861.218445,495.495087 855.132812,495.137634 
	C850.366760,494.857635 844.867126,495.437225 840.787048,497.650787 
	C833.413635,501.651123 826.856995,507.157074 819.196472,512.573730 
	C818.727051,510.029755 817.707825,507.246796 817.789673,504.496582 
	C818.253113,488.920410 820.417969,473.580475 827.144287,459.363617 
	C831.015808,451.181000 838.254944,446.530090 847.059570,444.973541 
	C874.497742,440.122833 902.211731,455.394257 913.711182,479.407959 
	C918.282471,488.954010 922.940979,498.364288 923.240112,509.122284 
	C923.382507,514.239990 922.505249,519.386047 921.995422,524.930237 
z"/>
<path fill="#1A1313" opacity="1.000000" stroke="none" 
	d="
M464.698425,538.284424 
	C492.108276,557.285339 494.911255,598.407471 465.865723,620.093689 
	C449.585663,632.248840 425.414795,632.722229 408.651123,621.121399 
	C390.720551,608.712952 382.582336,586.295105 388.531982,565.700256 
	C394.364502,545.510864 413.001251,530.774109 433.609955,529.791321 
	C444.818176,529.256714 455.030243,532.006226 464.698425,538.284424 
M412.545776,612.014832 
	C426.011200,621.395874 440.420532,622.819397 455.039459,615.658081 
	C470.094360,608.283203 477.797821,595.532654 478.090515,578.782959 
	C478.603760,549.414490 446.796814,528.638916 420.357697,540.871948 
	C391.382446,554.278381 386.996674,591.323242 412.545776,612.014832 
z"/>
<path fill="#151212" opacity="1.000000" stroke="none" 
	d="
M264.540283,541.583557 
	C254.358963,554.715210 244.399918,567.567383 234.092102,580.869568 
	C226.385162,575.033264 219.677856,569.953979 212.293060,564.361572 
	C228.805161,545.653259 245.010178,527.292786 261.648468,508.441467 
	C267.847443,514.253540 273.255249,519.323914 278.727661,524.454773 
	C273.818359,530.377991 269.290466,535.841003 264.540283,541.583557 
z"/>
<path fill="#161212" opacity="1.000000" stroke="none" 
	d="
M243.951202,620.022217 
	C253.712265,632.048950 263.249634,643.801208 273.217896,656.084412 
	C269.032898,659.398926 265.322113,662.699524 261.180603,665.319092 
	C260.330780,665.856628 257.414429,664.260315 256.219940,662.947510 
	C241.419708,646.681580 226.760941,630.286804 212.069077,613.922302 
	C209.853790,611.454834 207.655716,608.971924 204.936890,605.920593 
	C210.554581,601.447205 215.914749,597.178894 221.657791,592.605652 
	C229.261353,601.956787 236.494415,610.852234 243.951202,620.022217 
z"/>
<path fill="#171212" opacity="1.000000" stroke="none" 
	d="
M292.385406,563.429688 
	C287.278870,570.642456 282.379974,577.561829 277.022797,585.128479 
	C272.179382,581.833496 267.590118,578.711426 262.711609,575.392578 
	C263.458130,573.974487 263.947205,572.775940 264.661011,571.730835 
	C272.456116,560.317871 280.363129,548.980286 288.050720,537.495667 
	C289.881348,534.760803 291.595184,533.897400 294.510712,535.691162 
	C298.420654,538.096863 302.427795,540.344482 306.864044,542.934875 
	C301.772614,550.142090 297.182831,556.639160 292.385406,563.429688 
z"/>
<path fill="#171212" opacity="1.000000" stroke="none" 
	d="
M288.007080,604.827026 
	C293.473053,615.662842 298.772003,626.165588 304.421234,637.362610 
	C298.313141,640.101929 292.677643,642.629333 286.522675,645.389648 
	C279.895996,631.820251 273.513336,618.750488 266.742218,604.885315 
	C272.478363,602.829651 277.633728,600.569092 283.025299,599.375854 
	C284.195343,599.116882 286.212830,602.687256 288.007080,604.827026 
z"/>
<path fill="#171212" opacity="1.000000" stroke="none" 
	d="
M338.159851,575.340088 
	C335.222961,585.443848 337.337769,583.766418 327.262177,583.914795 
	C321.467529,584.000122 315.670593,583.930298 308.903473,583.930298 
	C310.058319,581.558716 310.812988,579.825317 311.721100,578.176392 
	C315.326447,571.630310 319.063049,565.154846 322.571686,558.557922 
	C323.864502,556.127197 325.283508,555.344788 328.102356,555.980835 
	C342.527954,559.235779 342.544830,559.161011 338.658600,573.503296 
	C338.528351,573.984192 338.398254,574.465149 338.159851,575.340088 
z"/>
<path fill="#171212" opacity="1.000000" stroke="none" 
	d="
M338.952576,605.888062 
	C343.342133,617.840515 343.342163,617.840576 331.863129,623.160217 
	C322.165161,627.654419 321.092407,627.222961 317.393494,617.341797 
	C312.435089,604.095947 312.431519,604.085938 325.811127,599.252502 
	C328.748810,598.191284 331.722198,597.228943 335.146423,596.061768 
	C336.452057,599.424255 337.636230,602.473999 338.952576,605.888062 
z"/>
<path fill="#191313" opacity="1.000000" stroke="none" 
	d="
M361.321686,564.116211 
	C362.924591,562.891418 364.537415,561.134338 365.832642,561.343506 
	C370.080597,562.029602 374.196167,563.499329 378.396118,564.531799 
	C381.205902,565.222534 382.209534,566.542419 381.310150,569.531555 
	C376.294525,586.201172 380.452820,583.396423 364.548218,579.592651 
	C362.148773,579.018738 359.802124,578.224060 356.649078,577.303040 
	C358.239868,572.808594 359.713013,568.646484 361.321686,564.116211 
z"/>
<path fill="#1A1313" opacity="1.000000" stroke="none" 
	d="
M381.879150,601.660400 
	C381.291260,603.351868 380.920990,605.240723 379.808319,605.928345 
	C377.727783,607.213989 375.220581,607.813477 372.883972,608.679932 
	C361.706726,612.824219 361.106262,612.507751 357.125000,599.936890 
	C363.600952,597.982422 370.051270,595.921692 376.590729,594.199158 
	C377.456726,593.971069 379.154785,595.220764 379.797150,596.217834 
	C380.762848,597.716858 381.136414,599.597351 381.879150,601.660400 
z"/>
<path fill="#CC3539" opacity="1.000000" stroke="none" 
	d="
M412.267456,611.786377 
	C386.996674,591.323242 391.382446,554.278381 420.357697,540.871948 
	C446.796814,528.638916 478.603760,549.414490 478.090515,578.782959 
	C477.797821,595.532654 470.094360,608.283203 455.039459,615.658081 
	C440.420532,622.819397 426.011200,621.395874 412.267456,611.786377 
M425.683807,590.721375 
	C432.329712,597.202942 441.368011,596.640137 445.497162,589.487671 
	C448.439636,584.390747 447.308899,577.953735 442.808777,574.183594 
	C438.609253,570.665283 432.350952,570.471802 428.089050,573.728638 
	C422.879913,577.709229 421.876465,583.492371 425.683807,590.721375 
M409.558746,555.039001 
	C409.734283,557.285950 409.420319,559.759644 410.308105,561.676758 
	C410.705322,562.534546 413.826660,562.948059 415.139648,562.335938 
	C416.463165,561.718872 417.721832,559.644470 417.875946,558.095825 
	C418.266235,554.174194 414.734497,552.663513 409.558746,555.039001 
M408.464050,601.673889 
	C409.905304,603.390503 411.082428,605.571411 412.909088,606.610596 
	C413.715210,607.069153 417.023804,605.333191 417.122559,604.378967 
	C417.338379,602.293640 416.917908,599.111938 415.515961,598.102966 
	C412.544220,595.964294 409.891296,597.515137 408.464050,601.673889 
M453.912933,605.654785 
	C456.041443,605.620911 458.347992,606.060303 460.223785,605.354675 
	C461.168060,604.999329 461.962341,602.451904 461.718109,601.094849 
	C461.168732,598.042236 458.911102,596.440002 455.825134,597.569458 
	C452.080963,598.939880 451.290039,601.659302 453.912933,605.654785 
M453.016388,555.594788 
	C453.148804,557.457703 452.591034,560.215393 453.575012,560.974365 
	C455.060822,562.120422 458.545044,562.867737 459.504852,561.977783 
	C460.863495,560.718079 461.757416,557.262146 460.959839,555.726624 
	C459.325867,552.580750 456.245941,552.488281 453.016388,555.594788 
M462.401886,578.880676 
	C464.037994,579.325928 466.471436,580.651794 467.148956,580.038391 
	C468.697510,578.636230 470.562531,575.921631 470.098053,574.421570 
	C469.624786,572.893188 466.293732,571.025146 464.608368,571.350342 
	C461.044006,572.037964 460.338745,575.005493 462.401886,578.880676 
M435.495331,608.305542 
	C435.848236,610.403137 435.769287,612.740540 436.742584,614.493713 
	C437.205200,615.326965 439.863098,615.606995 441.194855,615.156677 
	C444.177826,614.148071 445.345642,611.583435 443.814667,608.783508 
	C441.897675,605.277588 439.016571,605.073975 435.495331,608.305542 
M436.532928,553.012939 
	C439.678619,554.952393 442.523102,554.546631 443.787384,551.022095 
	C444.309082,549.567810 443.554901,546.593628 442.402802,545.871704 
	C440.981415,544.981079 437.425964,544.968201 436.788330,545.916992 
	C435.692780,547.547241 436.142700,550.216064 436.532928,553.012939 
M406.085846,588.932434 
	C409.931030,585.551086 410.229126,581.775635 406.557465,580.431946 
	C405.105988,579.900879 402.723938,580.126282 401.586914,581.034912 
	C400.494293,581.908142 399.566223,584.721130 400.161469,585.595215 
	C401.250641,587.194641 403.515869,587.993225 406.085846,588.932434 
z"/>
<path fill="#181212" opacity="1.000000" stroke="none" 
	d="
M425.465881,590.411865 
	C421.876465,583.492371 422.879913,577.709229 428.089050,573.728638 
	C432.350952,570.471802 438.609253,570.665283 442.808777,574.183594 
	C447.308899,577.953735 448.439636,584.390747 445.497162,589.487671 
	C441.368011,596.640137 432.329712,597.202942 425.465881,590.411865 
z"/>
<path fill="#241515" opacity="1.000000" stroke="none" 
	d="
M409.809601,554.773926 
	C414.734497,552.663513 418.266235,554.174194 417.875946,558.095825 
	C417.721832,559.644470 416.463165,561.718872 415.139648,562.335938 
	C413.826660,562.948059 410.705322,562.534546 410.308105,561.676758 
	C409.420319,559.759644 409.734283,557.285950 409.809601,554.773926 
z"/>
<path fill="#241515" opacity="1.000000" stroke="none" 
	d="
M408.517761,601.314209 
	C409.891296,597.515137 412.544220,595.964294 415.515961,598.102966 
	C416.917908,599.111938 417.338379,602.293640 417.122559,604.378967 
	C417.023804,605.333191 413.715210,607.069153 412.909088,606.610596 
	C411.082428,605.571411 409.905304,603.390503 408.517761,601.314209 
z"/>
<path fill="#241515" opacity="1.000000" stroke="none" 
	d="
M453.654968,605.384888 
	C451.290039,601.659302 452.080963,598.939880 455.825134,597.569458 
	C458.911102,596.440002 461.168732,598.042236 461.718109,601.094849 
	C461.962341,602.451904 461.168060,604.999329 460.223785,605.354675 
	C458.347992,606.060303 456.041443,605.620911 453.654968,605.384888 
z"/>
<path fill="#221415" opacity="1.000000" stroke="none" 
	d="
M453.237122,555.299866 
	C456.245941,552.488281 459.325867,552.580750 460.959839,555.726624 
	C461.757416,557.262146 460.863495,560.718079 459.504852,561.977783 
	C458.545044,562.867737 455.060822,562.120422 453.575012,560.974365 
	C452.591034,560.215393 453.148804,557.457703 453.237122,555.299866 
z"/>
<path fill="#221415" opacity="1.000000" stroke="none" 
	d="
M462.171844,578.593201 
	C460.338745,575.005493 461.044006,572.037964 464.608368,571.350342 
	C466.293732,571.025146 469.624786,572.893188 470.098053,574.421570 
	C470.562531,575.921631 468.697510,578.636230 467.148956,580.038391 
	C466.471436,580.651794 464.037994,579.325928 462.171844,578.593201 
z"/>
<path fill="#221415" opacity="1.000000" stroke="none" 
	d="
M435.737000,607.987061 
	C439.016571,605.073975 441.897675,605.277588 443.814667,608.783508 
	C445.345642,611.583435 444.177826,614.148071 441.194855,615.156677 
	C439.863098,615.606995 437.205200,615.326965 436.742584,614.493713 
	C435.769287,612.740540 435.848236,610.403137 435.737000,607.987061 
z"/>
<path fill="#1E1314" opacity="1.000000" stroke="none" 
	d="
M436.238403,552.730957 
	C436.142700,550.216064 435.692780,547.547241 436.788330,545.916992 
	C437.425964,544.968201 440.981415,544.981079 442.402802,545.871704 
	C443.554901,546.593628 444.309082,549.567810 443.787384,551.022095 
	C442.523102,554.546631 439.678619,554.952393 436.238403,552.730957 
z"/>
<path fill="#1A1313" opacity="1.000000" stroke="none" 
	d="
M405.688232,589.029053 
	C403.515869,587.993225 401.250641,587.194641 400.161469,585.595215 
	C399.566223,584.721130 400.494293,581.908142 401.586914,581.034912 
	C402.723938,580.126282 405.105988,579.900879 406.557465,580.431946 
	C410.229126,581.775635 409.931030,585.551086 405.688232,589.029053 
z"/>
</svg>